<svg width="14" height="14" viewBox="0 0 14 14" fill="none" xmlns="http://www.w3.org/2000/svg">
<path d="M7.14419 5.9974H13.8884C13.9628 6.40451 14 6.7934 14 7.16406C14 8.48264 13.7178 9.65994 13.1535 10.696C12.5891 11.732 11.7845 12.5417 10.7395 13.125C9.69457 13.7083 8.49612 14 7.14419 14C6.17054 14 5.24341 13.8162 4.36279 13.4486C3.48217 13.0809 2.72248 12.5842 2.08372 11.9583C1.44496 11.3325 0.937984 10.5881 0.562791 9.72526C0.187597 8.86241 0 7.95399 0 7C0 6.04601 0.187597 5.13759 0.562791 4.27474C0.937984 3.41189 1.44496 2.66753 2.08372 2.04167C2.72248 1.4158 3.48217 0.919054 4.36279 0.551432C5.24341 0.183811 6.17054 0 7.14419 0C9.00465 0 10.6016 0.610677 11.9349 1.83203L9.9907 3.66406C9.22791 2.94097 8.27907 2.57943 7.14419 2.57943C6.34419 2.57943 5.60465 2.77691 4.92558 3.17188C4.24651 3.56684 3.70853 4.10308 3.31163 4.7806C2.91473 5.45812 2.71628 6.19792 2.71628 7C2.71628 7.80208 2.91473 8.54188 3.31163 9.2194C3.70853 9.89692 4.24651 10.4332 4.92558 10.8281C5.60465 11.2231 6.34419 11.4206 7.14419 11.4206C7.68372 11.4206 8.17984 11.3477 8.63256 11.2018C9.08527 11.056 9.45736 10.8737 9.74884 10.6549C10.0403 10.4362 10.2946 10.1871 10.5116 9.90755C10.7287 9.62804 10.8884 9.36372 10.9907 9.11458C11.093 8.86545 11.1628 8.62847 11.2 8.40365H7.14419V5.9974Z" fill="black"/>
</svg>
