<svg width="12" height="14" viewBox="0 0 12 14" fill="none" xmlns="http://www.w3.org/2000/svg">
<path d="M10.022 7.43779C10.0427 9.55637 11.9786 10.2615 12 10.2705C11.9836 10.3201 11.6907 11.2752 10.9802 12.2616C10.3659 13.1145 9.7283 13.9641 8.72413 13.9819C7.73739 13.9991 7.42006 13.4259 6.29181 13.4259C5.16391 13.4259 4.81147 13.9641 3.87728 13.9991C2.90787 14.034 2.16965 13.0767 1.5503 12.2271C0.284795 10.489 -0.682368 7.31552 0.616238 5.17339C1.26133 4.10959 2.41438 3.43604 3.66577 3.41869C4.61763 3.40145 5.51611 4.02699 6.09797 4.02699C6.67948 4.02699 7.77132 3.27467 8.91915 3.38511C9.3997 3.40415 10.7485 3.56947 11.6146 4.7739C11.5449 4.81503 10.0053 5.66652 10.022 7.43779ZM8.16753 2.23533C8.68213 1.64359 9.02852 0.819597 8.9341 0C8.19221 0.0282853 7.29515 0.469581 6.76311 1.06109C6.28623 1.58476 5.86867 2.42318 5.98124 3.22655C6.80819 3.2874 7.65281 2.8274 8.16753 2.23533Z" fill="black"/>
</svg>
