<svg width="624" height="630" viewBox="0 0 624 630" fill="none" xmlns="http://www.w3.org/2000/svg">
<g filter="url(#filter0_d_1_808)">
<path d="M305.958 519.393C238.269 456.79 197.206 366.18 200.676 266.797C200.789 263.57 200.96 260.344 201.159 257.12C189.036 253.985 176.379 252.071 163.355 251.617C144.712 250.966 126.657 253.278 109.613 258.077C91.543 289.73 80.6388 326.047 79.2803 364.947C75.7746 465.339 136.528 553.059 224.61 588.533C258.307 574.477 286.736 550.198 305.958 519.393Z" fill="#FFC400"/>
</g>
<g filter="url(#filter1_d_1_808)">
<path d="M323.643 21.9013C279.3 57.4253 244.285 104.267 223.099 158.228C210.97 189.135 203.348 222.335 201.123 257.138C278.981 277.224 335.236 349.208 332.313 432.887C331.203 464.699 321.633 494.196 305.923 519.411C335.575 546.844 370.32 568.859 408.684 583.93C485.688 548.335 540.323 471.742 543.486 381.147C545.536 322.451 522.984 270.137 491.118 225.98C457.464 179.279 323.643 21.9013 323.643 21.9013Z" fill="#DD2C00"/>
</g>
<g filter="url(#filter2_d_1_808)">
<path d="M224.614 588.524C249.024 598.349 275.506 604.178 303.313 605.15C340.945 606.464 376.732 598.684 408.724 583.904C370.36 568.831 335.616 546.789 305.962 519.384C286.74 550.159 258.31 574.469 224.614 588.524Z" fill="#FF9100"/>
</g>
<path d="M305.96 519.39C321.697 494.205 331.238 464.679 332.349 432.867C335.271 349.187 279.018 277.203 201.16 257.117C200.961 260.341 200.79 263.567 200.677 266.793C197.207 366.177 238.27 456.787 305.96 519.39Z" fill="#FF9100"/>
<defs>
<filter id="filter0_d_1_808" x="79.1361" y="251.509" width="231.822" height="342.025" filterUnits="userSpaceOnUse" color-interpolation-filters="sRGB">
<feFlood flood-opacity="0" result="BackgroundImageFix"/>
<feColorMatrix in="SourceAlpha" type="matrix" values="0 0 0 0 0 0 0 0 0 0 0 0 0 0 0 0 0 0 127 0" result="hardAlpha"/>
<feOffset dx="5" dy="5"/>
<feComposite in2="hardAlpha" operator="out"/>
<feColorMatrix type="matrix" values="0 0 0 0 0 0 0 0 0 0 0 0 0 0 0 0 0 0 1 0"/>
<feBlend mode="normal" in2="BackgroundImageFix" result="effect1_dropShadow_1_808"/>
<feBlend mode="normal" in="SourceGraphic" in2="effect1_dropShadow_1_808" result="shape"/>
</filter>
<filter id="filter1_d_1_808" x="201.123" y="21.9013" width="347.492" height="567.029" filterUnits="userSpaceOnUse" color-interpolation-filters="sRGB">
<feFlood flood-opacity="0" result="BackgroundImageFix"/>
<feColorMatrix in="SourceAlpha" type="matrix" values="0 0 0 0 0 0 0 0 0 0 0 0 0 0 0 0 0 0 127 0" result="hardAlpha"/>
<feOffset dx="5" dy="5"/>
<feComposite in2="hardAlpha" operator="out"/>
<feColorMatrix type="matrix" values="0 0 0 0 0 0 0 0 0 0 0 0 0 0 0 0 0 0 1 0"/>
<feBlend mode="normal" in2="BackgroundImageFix" result="effect1_dropShadow_1_808"/>
<feBlend mode="normal" in="SourceGraphic" in2="effect1_dropShadow_1_808" result="shape"/>
</filter>
<filter id="filter2_d_1_808" x="224.614" y="519.384" width="189.11" height="90.9094" filterUnits="userSpaceOnUse" color-interpolation-filters="sRGB">
<feFlood flood-opacity="0" result="BackgroundImageFix"/>
<feColorMatrix in="SourceAlpha" type="matrix" values="0 0 0 0 0 0 0 0 0 0 0 0 0 0 0 0 0 0 127 0" result="hardAlpha"/>
<feOffset dx="5" dy="5"/>
<feComposite in2="hardAlpha" operator="out"/>
<feColorMatrix type="matrix" values="0 0 0 0 0 0 0 0 0 0 0 0 0 0 0 0 0 0 1 0"/>
<feBlend mode="normal" in2="BackgroundImageFix" result="effect1_dropShadow_1_808"/>
<feBlend mode="normal" in="SourceGraphic" in2="effect1_dropShadow_1_808" result="shape"/>
</filter>
</defs>
</svg>
